<svg xmlns="http://www.w3.org/2000/svg" width="1200" height="300" viewBox="0 0 1200 300" role="img" aria-labelledby="title desc"><title id="title">DragonForge Test Lab</title><desc id="desc">A dark geometric banner showing a test controller distributing typed work to Windows, Linux, virtual machine, container, and ARM workers.</desc><rect width="1200" height="300" rx="28" fill="#090b10"/><rect x="22" y="22" width="1156" height="256" rx="22" fill="#11141b" stroke="#202632" stroke-width="2"/><path d="M86 74 L130 48 L174 74 L174 124 C174 159 152 181 130 193 C108 181 86 159 86 124 Z" fill="none" stroke="#ff8a2b" stroke-width="8"/><circle cx="130" cy="119" r="18" fill="#ff8a2b"/><text x="220" y="102" fill="#f6f7fb" font-family="Segoe UI, Arial, sans-serif" font-size="46" font-weight="700">DragonForge Test Lab</text><text x="220" y="144" fill="#8d96a8" font-family="Segoe UI, Arial, sans-serif" font-size="22">Local-first test orchestration • typed execution • distributed evidence</text><rect x="220" y="181" width="190" height="48" rx="10" fill="#171b24" stroke="#ff8a2b"/><text x="315" y="211" text-anchor="middle" fill="#f6f7fb" font-family="Segoe UI, Arial, sans-serif" font-size="17">Controller</text><path d="M410 205 H485" stroke="#8d96a8" stroke-width="3"/><rect x="485" y="181" width="145" height="48" rx="10" fill="#171b24"/><text x="557" y="211" text-anchor="middle" fill="#f6f7fb" font-family="Segoe UI, Arial, sans-serif" font-size="17">Windows</text><rect x="650" y="181" width="130" height="48" rx="10" fill="#171b24"/><text x="715" y="211" text-anchor="middle" fill="#f6f7fb" font-family="Segoe UI, Arial, sans-serif" font-size="17">Linux</text><rect x="800" y="181" width="130" height="48" rx="10" fill="#171b24"/><text x="865" y="211" text-anchor="middle" fill="#f6f7fb" font-family="Segoe UI, Arial, sans-serif" font-size="17">VM / GUI</text><rect x="950" y="181" width="150" height="48" rx="10" fill="#171b24"/><text x="1025" y="211" text-anchor="middle" fill="#f6f7fb" font-family="Segoe UI, Arial, sans-serif" font-size="17">ARM / HIL</text></svg>